<?xml version="1.0" standalone="no"?>
<!DOCTYPE svg PUBLIC "-//W3C//DTD SVG 20010904//EN"
 "http://www.w3.org/TR/2001/REC-SVG-20010904/DTD/svg10.dtd">
<svg version="1.0" xmlns="http://www.w3.org/2000/svg"
 width="512.000000pt" height="512.000000pt" viewBox="0 0 512.000000 512.000000"
 preserveAspectRatio="xMidYMid meet">
<metadata>
Created by potrace 1.14, written by Peter Selinger 2001-2017
</metadata>
<g transform="translate(0.000000,512.000000) scale(0.100000,-0.100000)"
fill="#000000" stroke="none">
<path d="M0 2560 l0 -2560 2560 0 2560 0 0 2560 0 2560 -2560 0 -2560 0 0
-2560z m2619 1914 c29 -24 31 -30 31 -94 0 -58 -4 -73 -24 -97 -19 -22 -32
-28 -66 -28 -34 0 -47 6 -66 28 -20 23 -24 39 -24 93 0 59 3 68 29 95 37 37
79 38 120 3z m-948 -253 c14 -10 35 -40 48 -66 20 -41 22 -52 13 -84 -11 -37
-53 -71 -87 -71 -58 0 -133 101 -121 165 13 66 95 97 147 56z m1892 -1 c41
-32 44 -79 11 -141 -44 -81 -113 -101 -163 -48 -33 35 -35 73 -9 125 12 25 33
55 47 65 31 25 82 24 114 -1z m-753 -145 c167 -33 349 -110 500 -210 99 -66
292 -259 358 -360 66 -99 133 -235 167 -340 23 -69 25 -84 16 -117 -8 -25 -22
-43 -41 -53 -38 -20 -58 -19 -96 4 -25 15 -36 33 -52 88 -27 86 -99 235 -153
315 -131 192 -352 361 -576 441 -161 58 -395 78 -563 48 -421 -75 -777 -387
-910 -796 -27 -83 -42 -103 -85 -111 -43 -8 -89 16 -105 57 -12 28 -10 40 15
118 105 323 324 593 620 765 141 81 322 142 490 165 92 13 320 5 415 -14z
m-1819 -561 c63 -31 86 -76 69 -130 -12 -37 -52 -64 -92 -64 -32 0 -116 55
-130 84 -25 56 21 136 79 136 13 0 46 -11 74 -26z m3277 -9 c26 -30 29 -80 7
-112 -19 -27 -97 -73 -125 -73 -37 0 -77 28 -89 62 -18 52 1 93 62 129 62 36
110 34 145 -6z m-1608 -62 c94 -55 233 -198 297 -307 29 -48 53 -92 55 -97 2
-5 38 0 81 11 94 24 124 16 176 -46 35 -42 101 -168 101 -192 0 -10 7 -13 23
-9 189 44 272 48 390 18 155 -40 179 -66 197 -206 18 -139 -21 -310 -100 -448
-25 -44 -35 -69 -27 -72 174 -54 269 -98 363 -169 93 -70 184 -190 184 -245 0
-63 -97 -189 -203 -265 -178 -126 -388 -186 -651 -186 -250 0 -470 59 -632
171 l-41 28 -95 -48 c-132 -66 -199 -79 -292 -57 -39 9 -108 36 -153 61 l-82
44 -81 -49 c-90 -54 -176 -89 -295 -121 -116 -31 -387 -38 -522 -14 -258 46
-483 172 -588 330 -63 95 -57 137 34 252 92 115 232 195 468 268 8 3 -1 28
-27 72 -102 174 -135 417 -75 559 36 86 278 138 460 98 39 -8 82 -17 98 -21
20 -4 27 -2 27 10 0 31 80 174 120 212 35 34 46 39 83 37 24 -1 62 -8 86 -17
60 -21 67 -19 82 17 71 171 330 418 439 418 23 0 59 -13 100 -37z m-398 -2266
c54 -36 145 -52 298 -52 157 1 234 15 308 57 67 38 113 33 142 -15 28 -45 25
-81 -10 -120 -64 -73 -230 -117 -439 -117 -210 0 -356 36 -428 105 -45 43 -52
69 -33 119 12 33 57 57 96 52 17 -2 47 -15 66 -29z m-510 -188 c11 -6 40 -26
64 -44 131 -100 546 -162 911 -137 299 21 507 73 595 150 19 17 46 34 61 37
38 10 85 -12 103 -48 65 -125 -167 -256 -553 -314 -166 -24 -580 -24 -746 0
-305 46 -541 149 -562 248 -17 76 62 143 127 108z"/>
<path d="M2525 3258 c-84 -60 -163 -154 -221 -261 l-32 -61 89 -84 c49 -46
112 -115 140 -153 29 -38 55 -69 58 -69 4 0 28 29 54 64 26 36 90 104 141 153
l94 89 -35 66 c-45 87 -115 171 -188 230 -32 27 -61 48 -65 48 -3 0 -18 -10
-35 -22z"/>
<path d="M1967 2836 c-61 -92 -85 -325 -53 -498 48 -257 160 -474 335 -649 78
-77 112 -103 181 -138 l85 -42 17 21 c26 33 55 118 68 205 36 233 -47 546
-208 790 -90 135 -234 267 -346 315 -60 25 -60 25 -79 -4z"/>
<path d="M3040 2823 c-116 -60 -259 -205 -349 -356 l-23 -38 35 -92 c89 -234
117 -485 76 -676 -6 -29 -8 -55 -5 -58 3 -4 50 38 104 93 149 152 250 333 308
552 38 141 45 345 15 461 -23 91 -49 144 -72 149 -9 1 -49 -14 -89 -35z"/>
<path d="M1385 2637 c-43 -11 -50 -16 -59 -45 -12 -44 6 -165 38 -243 74 -183
223 -334 409 -411 38 -16 71 -27 74 -24 3 3 -11 44 -32 91 -60 141 -96 298
-103 460 l-7 139 -60 19 c-77 23 -196 30 -260 14z"/>
<path d="M3525 2635 c-120 -26 -115 -20 -115 -132 0 -157 -38 -337 -106 -501
-19 -46 -33 -86 -31 -88 6 -6 76 20 134 49 78 40 194 137 248 208 104 139 169
344 136 432 -16 43 -147 58 -266 32z"/>
<path d="M1324 1910 c-44 -10 -109 -30 -145 -45 -115 -48 -249 -150 -249 -189
0 -18 78 -90 144 -131 246 -156 675 -167 956 -25 74 37 75 38 31 85 -21 23
-46 53 -55 67 -14 22 -26 26 -92 31 -135 12 -285 74 -415 171 -41 31 -78 56
-84 55 -5 0 -46 -9 -91 -19z"/>
<path d="M3622 1875 c-131 -98 -324 -175 -440 -175 -36 0 -48 -5 -65 -27 -12
-16 -39 -47 -60 -70 l-38 -42 53 -30 c70 -41 212 -86 317 -101 126 -19 323 -8
440 24 119 33 239 96 310 162 52 48 55 53 44 77 -30 65 -203 169 -343 206
-142 37 -136 38 -218 -24z"/>
</g>
</svg>
