<svg xmlns="http://www.w3.org/2000/svg">
	<symbol id="logo" viewBox="0 0 375 453">
		<g filter="url(#filter0_d_1_12)">
		<path d="M182.87 124.371V121.203C182.87 118.329 185.167 116 188 116C190.833 116 193.13 118.329 193.13 121.203V124.371C193.13 127.245 190.833 129.574 188 129.574C185.167 129.574 182.87 127.244 182.87 124.371ZM133.263 140.64C134.213 142.31 135.937 143.244 137.711 143.244C138.58 143.244 139.462 143.019 140.269 142.547C142.723 141.111 143.565 137.928 142.15 135.439L140.59 132.697C139.173 130.207 136.035 129.354 133.583 130.789C131.129 132.225 130.287 135.408 131.703 137.897L133.263 140.64ZM235.729 142.547C236.536 143.02 237.418 143.245 238.288 143.245C240.061 143.245 241.786 142.311 242.736 140.642L244.297 137.899C245.713 135.41 244.873 132.228 242.419 130.791C239.966 129.355 236.829 130.208 235.412 132.696L233.851 135.439C232.434 137.927 233.275 141.109 235.729 142.547ZM275.116 180.591C275.986 180.591 276.869 180.366 277.677 179.893L280.381 178.309C282.834 176.872 283.674 173.689 282.257 171.201C280.841 168.712 277.704 167.86 275.25 169.298L272.546 170.881C270.093 172.318 269.253 175.501 270.669 177.99C271.619 179.658 273.343 180.591 275.116 180.591ZM288.45 272.874C281.789 286.265 263.175 295.263 242.131 295.263C227.705 295.263 214.192 291.042 205.005 283.816C199.743 287.474 194.187 289.83 188.682 290.55C188.431 290.583 188.18 290.595 187.937 290.592C187.732 290.591 187.525 290.577 187.319 290.55C181.814 289.829 176.258 287.474 170.995 283.816C161.808 291.043 148.296 295.263 133.869 295.263C112.825 295.263 94.2112 286.265 87.5499 272.874C86.817 271.4 86.8164 269.661 87.5499 268.186C92.4648 258.303 103.704 250.809 117.926 247.561C110.546 236.929 107.852 224.365 111.194 213.618C111.603 212.303 112.511 211.206 113.716 210.569C122.145 206.115 132.835 205.792 143.24 209.491C144.785 204.3 147.216 199.783 150.51 196.262C151.637 195.058 153.264 194.472 154.887 194.684C157.577 195.036 160.28 195.779 162.955 196.873C168.382 185.238 176.382 176.561 185.859 172.15C187.217 171.517 188.78 171.517 190.138 172.15C199.612 176.559 207.609 185.23 213.038 196.858C215.713 195.773 218.418 195.037 221.114 194.684C222.738 194.472 224.364 195.058 225.49 196.262C228.785 199.783 231.215 204.3 232.76 209.49C243.166 205.792 253.855 206.115 262.283 210.568C263.488 211.205 264.396 212.302 264.805 213.617C268.149 224.365 265.454 236.928 258.073 247.56C272.296 250.808 283.535 258.302 288.45 268.185C289.183 269.661 289.183 271.4 288.45 272.874ZM226.339 258.114C231.909 256.71 237.443 253.819 242.318 249.67C252.274 241.197 257.488 228.859 255.557 218.889C249.532 216.515 242.016 216.883 234.61 219.897C235.321 229.613 233.594 240.602 229.327 251.419C228.421 253.718 227.42 255.954 226.339 258.114ZM171.95 201.943C177.86 206.211 183.372 212.117 187.989 219.183C192.63 212.041 198.136 206.144 204.032 201.902C200.081 193.243 194.425 186.47 188 182.728C181.563 186.476 175.901 193.265 171.95 201.943ZM133.681 249.67C138.555 253.819 144.09 256.711 149.662 258.114C148.58 255.953 147.581 253.719 146.673 251.417C142.407 240.602 140.68 229.612 141.39 219.897C133.984 216.882 126.469 216.513 120.442 218.887C118.511 228.859 123.725 241.196 133.681 249.67ZM162.891 276.915C160.682 274.661 158.572 272.172 156.594 269.483C146.429 269.307 135.824 265.081 127.086 257.642C126.718 257.329 126.357 257.013 126 256.693C113.506 258.263 103.034 263.487 98.1075 270.529C104.097 279.075 118.259 284.856 133.868 284.856C144.95 284.856 155.549 281.892 162.891 276.915ZM186.006 237.683C180.894 224.723 172.347 214.035 163.363 208.641C163.112 208.52 162.875 208.381 162.652 208.226C160.526 207.018 158.381 206.111 156.254 205.542C154.127 208.627 152.704 212.573 151.995 217.068C151.977 217.342 151.937 217.616 151.875 217.888C150.691 226.569 152.103 237.174 156.197 247.552C160.329 258.026 166.703 267.015 173.739 272.926C173.903 273.046 174.062 273.178 174.214 273.32C178.026 276.435 182.021 278.643 185.949 279.693C192.254 270.55 192.38 253.842 186.006 237.683ZM219.802 247.551C223.894 237.177 225.307 226.576 224.126 217.896C224.061 217.617 224.02 217.336 224.002 217.056C223.294 212.565 221.87 208.623 219.745 205.541C217.649 206.099 215.534 206.985 213.433 208.165C213.155 208.368 212.853 208.545 212.53 208.691C205.552 212.898 198.818 220.306 193.748 229.634C194.376 231.002 194.971 232.397 195.531 233.817C201.348 248.564 202.445 263.634 199.077 275.357C199.992 274.727 200.901 274.041 201.8 273.307C201.942 273.175 202.09 273.052 202.244 272.939C209.286 267.028 215.668 258.033 219.802 247.551ZM277.892 270.529C272.965 263.487 262.493 258.263 249.998 256.693C249.642 257.013 249.279 257.33 248.912 257.642C240.174 265.079 229.57 269.306 219.405 269.483C217.428 272.172 215.318 274.661 213.108 276.915C220.451 281.891 231.051 284.856 242.131 284.856C257.74 284.856 271.902 279.075 277.892 270.529ZM237.728 309.015C235.592 307.127 232.352 307.354 230.491 309.521C227.256 313.288 211.934 318.593 188 318.593C164.065 318.593 148.744 313.288 145.509 309.521C143.648 307.354 140.408 307.127 138.271 309.015C136.135 310.902 135.912 314.189 137.773 316.356C145.787 325.689 169.839 329 188.001 329C206.162 329 230.214 325.688 238.228 316.356C240.088 314.189 239.864 310.902 237.728 309.015ZM120.565 198.915C123.29 199.694 126.125 198.084 126.894 195.318C134.562 167.71 159.69 148.428 188 148.428C216.31 148.428 241.438 167.71 249.106 195.318C249.744 197.613 251.802 199.112 254.041 199.112C254.502 199.112 254.97 199.048 255.435 198.915C258.162 198.136 259.749 195.262 258.981 192.496C250.073 160.422 220.884 138.021 188 138.021C155.116 138.021 125.927 160.422 117.019 192.496C116.251 195.262 117.838 198.136 120.565 198.915ZM188 311.512C192.407 311.512 207.196 311.035 212.459 304.902C214.319 302.734 214.095 299.447 211.958 297.56C209.833 295.683 206.614 295.899 204.75 298.035C203.58 299.113 197.508 301.105 188 301.105C178.49 301.105 172.417 299.113 171.248 298.034C169.383 295.899 166.166 295.683 164.04 297.561C161.904 299.449 161.68 302.735 163.541 304.902C168.806 311.035 183.594 311.512 188 311.512ZM95.619 178.308L98.3212 179.892C99.1294 180.366 100.012 180.591 100.883 180.591C102.655 180.591 104.379 179.659 105.33 177.99C106.747 175.502 105.908 172.319 103.454 170.882L100.752 169.298C98.3007 167.861 95.1613 168.711 93.7444 171.2C92.3269 173.688 93.1664 176.87 95.619 178.308Z"/>
		</g>
		<defs>
		<filter id="filter0_d_1_12" x="-33" y="0" width="442" height="453" filterUnits="userSpaceOnUse" color-interpolation-filters="sRGB">
		<feFlood flood-opacity="0" result="BackgroundImageFix"/>
		<feColorMatrix in="SourceAlpha" type="matrix" values="0 0 0 0 0 0 0 0 0 0 0 0 0 0 0 0 0 0 127 0" result="hardAlpha"/>
		<feOffset dy="4"/>
		<feGaussianBlur stdDeviation="60"/>
		<feColorMatrix type="matrix" values="0 0 0 0 1 0 0 0 0 1 0 0 0 0 1 0 0 0 0.5 0"/>
		<feBlend mode="normal" in2="BackgroundImageFix" result="effect1_dropShadow_1_12"/>
		<feBlend mode="normal" in="SourceGraphic" in2="effect1_dropShadow_1_12" result="shape"/>
		</filter>
		</defs>
	</symbol>

	<symbol id="burger" viewBox="0 0 24 18">
		<path d="M0.457451 2H14.181C14.4335 2 14.6384 1.553 14.6384 1C14.6384 0.447 14.4335 0 14.181 0H0.457451C0.204938 0 0 0.447 0 1C0 1.553 0.204481 2 0.457451 2Z" fill="white"/>
		<path d="M7.80934 18H22.5131C22.7837 18 23.0033 17.553 23.0033 17C23.0033 16.447 22.7837 16 22.5131 16H7.80934C7.53879 16 7.31921 16.447 7.31921 17C7.31921 17.553 7.5383 18 7.80934 18Z" fill="white"/>
		<path d="M0.718852 10H22.2844C22.6812 10 23.0033 9.553 23.0033 9C23.0033 8.447 22.6812 8 22.2844 8H0.718852C0.322046 8 0 8.447 0 9C0 9.553 0.321327 10 0.718852 10Z" fill="white"/>
	</symbol>

	<symbol id="listen" viewBox="0 0 22 20">
		<g opacity="0.5">
		<path d="M20.9968 6.52769C20.3645 5.23077 19.2784 4.50462 18.2276 3.80154C17.4445 3.27692 16.706 2.78154 16.183 2.07231L16.086 1.94154C15.7784 1.52769 15.4276 1.05846 15.3737 0.664615C15.3691 0.632308 15.3507 0.606154 15.3414 0.573846C15.3276 0.52 15.3122 0.469231 15.2876 0.42C15.2691 0.38 15.243 0.344615 15.2153 0.307692C15.183 0.266154 15.1522 0.226154 15.1122 0.192308C15.0737 0.158462 15.0322 0.135385 14.9891 0.109231C14.9491 0.0861539 14.9122 0.0646154 14.8676 0.0492308C14.8137 0.0292308 14.7584 0.0215384 14.6999 0.0153846C14.6707 0.0138461 14.646 0 14.6153 0C14.5968 0 14.5814 0.00923081 14.5645 0.0107693C14.546 0.0123077 14.5291 0.00461538 14.5107 0.0076923C14.4768 0.0123077 14.4507 0.0307693 14.4184 0.04C14.366 0.0538462 14.3168 0.0676923 14.2707 0.0923077C14.2276 0.113846 14.1907 0.141538 14.1537 0.172308C14.1137 0.203077 14.0753 0.233846 14.043 0.272308C14.0107 0.309231 13.9876 0.349231 13.963 0.390769C13.9384 0.433846 13.9153 0.475385 13.8984 0.523077C13.8814 0.570769 13.8753 0.62 13.8691 0.672308C13.8614 0.703077 13.846 0.733846 13.846 0.769231V14.4769C13.2014 14.0862 12.4076 13.8462 11.5384 13.8462C9.41682 13.8462 7.6922 15.2262 7.6922 16.9231C7.6922 18.62 9.41682 20 11.5384 20C13.6599 20 15.3845 18.62 15.3845 16.9231V7.95692C16.5399 8.39846 18.4307 9.52308 18.9507 12.1492C18.8537 12.2923 18.7614 12.4477 18.6537 12.5692C18.3722 12.8877 18.4045 13.3738 18.723 13.6538C18.8691 13.7831 19.0507 13.8462 19.2307 13.8462C19.4445 13.8462 19.6553 13.7569 19.8076 13.5846C20.0122 13.3523 20.1953 13.0769 20.3707 12.7938C20.3907 12.7692 20.406 12.7462 20.423 12.72C21.0445 11.68 21.4568 10.3646 21.5353 9.06462C21.586 8.22923 21.3999 7.35231 20.9968 6.52769ZM11.5384 18.4615C10.2876 18.4615 9.23066 17.7569 9.23066 16.9231C9.23066 16.0892 10.2876 15.3846 11.5384 15.3846C12.7891 15.3846 13.846 16.0892 13.846 16.9231C13.846 17.7569 12.7891 18.4615 11.5384 18.4615ZM20.0014 8.96769C19.9799 9.32769 19.9245 9.68769 19.846 10.04C18.7645 7.86923 16.803 6.73846 15.3845 6.32V3.49385C15.9876 4.13692 16.6876 4.61846 17.3737 5.07692C18.2953 5.69385 19.166 6.27692 19.6168 7.20154C19.8999 7.77846 20.0353 8.40769 20.0014 8.96769Z"/>
		<path d="M10 0H0.769231C0.344615 0 0 0.344615 0 0.769231C0 1.19385 0.344615 1.53846 0.769231 1.53846H10C10.4246 1.53846 10.7692 1.19385 10.7692 0.769231C10.7692 0.344615 10.4246 0 10 0Z"/>
		<path d="M10 4.61542H0.769231C0.344615 4.61542 0 4.96003 0 5.38465C0 5.80926 0.344615 6.15388 0.769231 6.15388H10C10.4246 6.15388 10.7692 5.80926 10.7692 5.38465C10.7692 4.96003 10.4246 4.61542 10 4.61542Z"/>
		<path d="M5.38462 9.23083H0.769231C0.344615 9.23083 0 9.57545 0 10.0001C0 10.4247 0.344615 10.7693 0.769231 10.7693H5.38462C5.80923 10.7693 6.15385 10.4247 6.15385 10.0001C6.15385 9.57545 5.80923 9.23083 5.38462 9.23083Z"/>
		<path d="M5.38462 13.8461H0.769231C0.344615 13.8461 0 14.1907 0 14.6153C0 15.0399 0.344615 15.3845 0.769231 15.3845H5.38462C5.80923 15.3845 6.15385 15.0399 6.15385 14.6153C6.15385 14.1907 5.80923 13.8461 5.38462 13.8461Z"/>
		</g>
	</symbol>

	<symbol id="profile" viewBox="0 0 18 22">
		<g opacity="0.5">
		<path d="M8.88526 10.9424C11.6308 10.9424 13.8565 8.71672 13.8565 5.9712C13.8565 3.22568 11.6308 1 8.88526 1C6.13974 1 3.91406 3.22568 3.91406 5.9712C3.91406 8.71672 6.13974 10.9424 8.88526 10.9424Z" stroke-width="1.5" stroke-linecap="round" stroke-linejoin="round"/>
		<path fill-rule="evenodd" clip-rule="evenodd" d="M1.00002 17.8564C0.998698 17.5069 1.07686 17.1617 1.2286 16.8469C1.70477 15.8946 3.04757 15.3898 4.16181 15.1613C4.9654 14.9898 5.78009 14.8752 6.59981 14.8184C8.11747 14.6851 9.64389 14.6851 11.1615 14.8184C11.9812 14.8759 12.7958 14.9904 13.5995 15.1613C14.7138 15.3898 16.0566 15.847 16.5328 16.8469C16.8379 17.4887 16.8379 18.2337 16.5328 18.8754C16.0566 19.8754 14.7138 20.3325 13.5995 20.5515C12.7969 20.7301 11.9819 20.8479 11.1615 20.9039C9.92629 21.0086 8.68528 21.0277 7.4474 20.961C7.1617 20.961 6.88552 20.961 6.59981 20.9039C5.78251 20.8486 4.97065 20.7308 4.17134 20.5515C3.04757 20.3325 1.71429 19.8754 1.2286 18.8754C1.07763 18.5569 0.99955 18.2088 1.00002 17.8564Z" stroke-width="1.5" stroke-linecap="round" stroke-linejoin="round"/>
		</g>
	</symbol>

	<symbol id="" viewBox="0 0 24 24">

	</symbol>
</svg>